<svg width="24" height="26" viewBox="0 0 24 26" fill="none" xmlns="http://www.w3.org/2000/svg">
<g clip-path="url(#clip0_730_62662)">
<path d="M5.25 0C5.44891 0 5.63968 0.0856024 5.78033 0.237976C5.92098 0.390349 6 0.597012 6 0.8125V1.625H18V0.8125C18 0.597012 18.079 0.390349 18.2197 0.237976C18.3603 0.0856024 18.5511 0 18.75 0C18.9489 0 19.1397 0.0856024 19.2803 0.237976C19.421 0.390349 19.5 0.597012 19.5 0.8125V1.625H21C21.7956 1.625 22.5587 1.96741 23.1213 2.5769C23.6839 3.1864 24 4.01305 24 4.875V22.75C24 23.612 23.6839 24.4386 23.1213 25.0481C22.5587 25.6576 21.7956 26 21 26H3C2.20435 26 1.44129 25.6576 0.87868 25.0481C0.316071 24.4386 0 23.612 0 22.75V4.875C0 4.01305 0.316071 3.1864 0.87868 2.5769C1.44129 1.96741 2.20435 1.625 3 1.625H4.5V0.8125C4.5 0.597012 4.57902 0.390349 4.71967 0.237976C4.86032 0.0856024 5.05109 0 5.25 0V0ZM3 3.25C2.60218 3.25 2.22064 3.4212 1.93934 3.72595C1.65804 4.0307 1.5 4.44402 1.5 4.875V6.5H22.5V4.875C22.5 4.44402 22.342 4.0307 22.0607 3.72595C21.7794 3.4212 21.3978 3.25 21 3.25H3ZM22.5 8.125H1.5V22.75C1.5 23.181 1.65804 23.5943 1.93934 23.899C2.22064 24.2038 2.60218 24.375 3 24.375H21C21.3978 24.375 21.7794 24.2038 22.0607 23.899C22.342 23.5943 22.5 23.181 22.5 22.75V8.125Z" fill="white"/>
<path d="M16.5 12.1875C16.5 11.972 16.579 11.7653 16.7197 11.613C16.8603 11.4606 17.0511 11.375 17.25 11.375H18.75C18.9489 11.375 19.1397 11.4606 19.2803 11.613C19.421 11.7653 19.5 11.972 19.5 12.1875V13.8125C19.5 14.028 19.421 14.2347 19.2803 14.387C19.1397 14.5394 18.9489 14.625 18.75 14.625H17.25C17.0511 14.625 16.8603 14.5394 16.7197 14.387C16.579 14.2347 16.5 14.028 16.5 13.8125V12.1875Z" fill="white"/>
</g>
<defs>
<clipPath id="clip0_730_62662">
<rect width="24" height="26" fill="white"/>
</clipPath>
</defs>
</svg>
