<svg width="28" height="30" viewBox="0 0 28 30" fill="none" xmlns="http://www.w3.org/2000/svg">
<path d="M0 4.6875C0 4.43886 0.0921872 4.2004 0.256282 4.02459C0.420376 3.84877 0.642936 3.75 0.875 3.75H3.5C3.69518 3.75006 3.88474 3.82003 4.03853 3.9488C4.19232 4.07756 4.30152 4.25772 4.34875 4.46062L5.0575 7.5H25.375C25.5079 7.50004 25.6391 7.53252 25.7585 7.59497C25.878 7.65743 25.9826 7.74822 26.0644 7.86045C26.1462 7.97268 26.203 8.10341 26.2307 8.2427C26.2583 8.382 26.2559 8.5262 26.2237 8.66437L23.5987 19.9144C23.5515 20.1173 23.4423 20.2974 23.2885 20.4262C23.1347 20.555 22.9452 20.6249 22.75 20.625H7C6.80482 20.6249 6.61526 20.555 6.46147 20.4262C6.30768 20.2974 6.19848 20.1173 6.15125 19.9144L2.8175 5.625H0.875C0.642936 5.625 0.420376 5.52623 0.256282 5.35041C0.0921872 5.1746 0 4.93614 0 4.6875ZM5.495 9.375L7.6825 18.75H22.0675L24.255 9.375H5.495ZM8.75 24.375C8.28587 24.375 7.84075 24.5725 7.51256 24.9242C7.18437 25.2758 7 25.7527 7 26.25C7 26.7473 7.18437 27.2242 7.51256 27.5758C7.84075 27.9275 8.28587 28.125 8.75 28.125C9.21413 28.125 9.65925 27.9275 9.98744 27.5758C10.3156 27.2242 10.5 26.7473 10.5 26.25C10.5 25.7527 10.3156 25.2758 9.98744 24.9242C9.65925 24.5725 9.21413 24.375 8.75 24.375ZM5.25 26.25C5.25 25.2554 5.61875 24.3016 6.27513 23.5984C6.9315 22.8951 7.82174 22.5 8.75 22.5C9.67826 22.5 10.5685 22.8951 11.2249 23.5984C11.8813 24.3016 12.25 25.2554 12.25 26.25C12.25 27.2446 11.8813 28.1984 11.2249 28.9016C10.5685 29.6049 9.67826 30 8.75 30C7.82174 30 6.9315 29.6049 6.27513 28.9016C5.61875 28.1984 5.25 27.2446 5.25 26.25ZM21 24.375C20.5359 24.375 20.0908 24.5725 19.7626 24.9242C19.4344 25.2758 19.25 25.7527 19.25 26.25C19.25 26.7473 19.4344 27.2242 19.7626 27.5758C20.0908 27.9275 20.5359 28.125 21 28.125C21.4641 28.125 21.9092 27.9275 22.2374 27.5758C22.5656 27.2242 22.75 26.7473 22.75 26.25C22.75 25.7527 22.5656 25.2758 22.2374 24.9242C21.9092 24.5725 21.4641 24.375 21 24.375ZM17.5 26.25C17.5 25.2554 17.8687 24.3016 18.5251 23.5984C19.1815 22.8951 20.0717 22.5 21 22.5C21.9283 22.5 22.8185 22.8951 23.4749 23.5984C24.1313 24.3016 24.5 25.2554 24.5 26.25C24.5 27.2446 24.1313 28.1984 23.4749 28.9016C22.8185 29.6049 21.9283 30 21 30C20.0717 30 19.1815 29.6049 18.5251 28.9016C17.8687 28.1984 17.5 27.2446 17.5 26.25Z" fill="white"/>
</svg>
