<svg width="36" height="37" viewBox="0 0 36 37" fill="none" xmlns="http://www.w3.org/2000/svg">
<rect y="0.316406" width="36" height="36" rx="8" fill="#292E37"/>
<path d="M25.0511 11.3164H10.5268C10.255 11.3164 10.0025 11.3747 9.76953 11.4912L17.789 17.996L25.8084 11.4912C25.5754 11.3747 25.3424 11.3164 25.0511 11.3164Z" fill="white"/>
<path d="M18.3348 19.7836C18.1794 19.9195 17.9852 19.9778 17.7911 19.9778C17.5969 19.9778 17.4027 19.9195 17.2474 19.7836L8.80078 12.9292C8.80078 12.968 8.80078 12.9875 8.80078 13.0457V23.5894C8.80078 24.5409 9.57748 25.3176 10.5289 25.3176H25.0726C26.0241 25.3176 26.8008 24.5409 26.8008 23.5894V13.0457C26.8008 13.0069 26.8008 12.9875 26.8008 12.9292L18.3348 19.7836Z" fill="white"/>
</svg>
