<svg width="15" height="15" viewBox="0 0 15 15" fill="none" xmlns="http://www.w3.org/2000/svg">
<path d="M7.96837 6.09375C7.96837 5.96943 7.91898 5.8502 7.83107 5.76229C7.74317 5.67439 7.62394 5.625 7.49962 5.625C7.3753 5.625 7.25607 5.67439 7.16816 5.76229C7.08025 5.8502 7.03087 5.96943 7.03087 6.09375V9.64969L5.95649 8.57438C5.91291 8.53079 5.86117 8.49622 5.80423 8.47263C5.74728 8.44905 5.68625 8.43691 5.62462 8.43691C5.56298 8.43691 5.50195 8.44905 5.44501 8.47263C5.38806 8.49622 5.33632 8.53079 5.29274 8.57438C5.24916 8.61796 5.21459 8.6697 5.191 8.72664C5.16741 8.78358 5.15527 8.84462 5.15527 8.90625C5.15527 8.96789 5.16741 9.02892 5.191 9.08586C5.21459 9.1428 5.24916 9.19454 5.29274 9.23813L7.16774 11.1131C7.21128 11.1568 7.26301 11.1914 7.31996 11.215C7.37691 11.2387 7.43796 11.2508 7.49962 11.2508C7.56127 11.2508 7.62232 11.2387 7.67927 11.215C7.73622 11.1914 7.78795 11.1568 7.83149 11.1131L9.70649 9.23813C9.75007 9.19454 9.78465 9.1428 9.80823 9.08586C9.83182 9.02892 9.84396 8.96789 9.84396 8.90625C9.84396 8.84462 9.83182 8.78358 9.80823 8.72664C9.78465 8.6697 9.75007 8.61796 9.70649 8.57438C9.66291 8.53079 9.61117 8.49622 9.55423 8.47263C9.49728 8.44905 9.43625 8.43691 9.37462 8.43691C9.31298 8.43691 9.25195 8.44905 9.19501 8.47263C9.13806 8.49622 9.08632 8.53079 9.04274 8.57438L7.96837 9.64969V6.09375Z" fill="white"/>
<path d="M13.125 13.125V4.21875L8.90625 0H3.75C3.25272 0 2.77581 0.197544 2.42417 0.549175C2.07254 0.900806 1.875 1.37772 1.875 1.875V13.125C1.875 13.6223 2.07254 14.0992 2.42417 14.4508C2.77581 14.8025 3.25272 15 3.75 15H11.25C11.7473 15 12.2242 14.8025 12.5758 14.4508C12.9275 14.0992 13.125 13.6223 13.125 13.125ZM8.90625 2.8125C8.90625 3.18546 9.05441 3.54315 9.31813 3.80687C9.58185 4.07059 9.93954 4.21875 10.3125 4.21875H12.1875V13.125C12.1875 13.3736 12.0887 13.6121 11.9129 13.7879C11.7371 13.9637 11.4986 14.0625 11.25 14.0625H3.75C3.50136 14.0625 3.2629 13.9637 3.08709 13.7879C2.91127 13.6121 2.8125 13.3736 2.8125 13.125V1.875C2.8125 1.62636 2.91127 1.3879 3.08709 1.21209C3.2629 1.03627 3.50136 0.9375 3.75 0.9375H8.90625V2.8125Z" fill="white"/>
</svg>
