<svg width="15" height="16" viewBox="0 0 15 16" fill="none" xmlns="http://www.w3.org/2000/svg">
<g clip-path="url(#clip0_724_48675)">
<path d="M8.31 0.290575C7.41375 0.0662197 6.58125 0.744917 6.52125 1.62356C6.45375 2.61016 6.30562 3.51603 6.12 4.05486C6.00281 4.3928 5.67094 5.00579 5.145 5.59343C4.62281 6.17826 3.94313 6.69925 3.14719 6.91703C2.51719 7.08882 1.875 7.63516 1.875 8.43307V12.1889C1.875 12.9821 2.51437 13.5632 3.2325 13.6392C4.23562 13.7463 4.69875 14.0288 5.17125 14.3179L5.21625 14.3461C5.47125 14.501 5.75812 14.6728 6.12562 14.8004C6.49781 14.9281 6.93281 15.0041 7.5 15.0041H10.7812C11.6597 15.0041 12.2803 14.5564 12.5944 14.0053C12.7462 13.7453 12.8282 13.4504 12.8325 13.1492C12.8325 13.0065 12.8109 12.8563 12.7603 12.7137C12.9487 12.4668 13.1166 12.1711 13.2178 11.8679C13.3209 11.5581 13.3791 11.1526 13.2216 10.7893C13.2862 10.6672 13.3341 10.5368 13.3706 10.411C13.4428 10.1575 13.4766 9.87777 13.4766 9.60648C13.4766 9.33612 13.4428 9.05732 13.3706 8.80293C13.3378 8.68598 13.2945 8.57224 13.2412 8.46311C13.4054 8.22925 13.511 7.95931 13.5492 7.67603C13.5874 7.39275 13.557 7.10443 13.4606 6.83536C13.2675 6.27964 12.8212 5.80277 12.3356 5.6413C11.5416 5.37658 10.6453 5.38222 9.97687 5.44323C9.8381 5.45574 9.69963 5.47139 9.56156 5.49017C9.88679 4.09559 9.86683 2.64256 9.50344 1.25746C9.44021 1.03554 9.31893 0.834552 9.15213 0.675292C8.98534 0.516032 8.77908 0.40428 8.55469 0.351592L8.31 0.290575ZM10.7812 14.0664H7.5C7.02187 14.0664 6.69094 14.0016 6.43125 13.9124C6.16781 13.8214 5.95687 13.6984 5.70375 13.5435L5.66625 13.521C5.14594 13.2027 4.54312 12.8348 3.33187 12.7061C3.01969 12.6724 2.8125 12.4339 2.8125 12.1898V8.43307C2.8125 8.19464 3.02437 7.92334 3.39375 7.8229C4.42031 7.54128 5.24719 6.88793 5.84437 6.21956C6.43969 5.55306 6.84187 4.83494 7.005 4.36276C7.23281 3.70565 7.38656 2.7031 7.45687 1.6874C7.48031 1.34758 7.79437 1.12979 8.08219 1.20114L8.32781 1.26309C8.47781 1.30064 8.56969 1.39733 8.59781 1.50247C8.98067 2.96314 8.93346 4.50352 8.46187 5.93794C8.43518 6.01772 8.4304 6.10322 8.44802 6.18548C8.46564 6.26775 8.50503 6.34376 8.56205 6.40556C8.61907 6.46736 8.69163 6.51267 8.77214 6.53676C8.85266 6.56085 8.93815 6.56282 9.01969 6.54248L9.0225 6.54154L9.03562 6.53873L9.09 6.52558C9.41058 6.45742 9.73489 6.40821 10.0612 6.3782C10.6828 6.32188 11.4272 6.32751 12.0394 6.53215C12.2034 6.5866 12.4612 6.81377 12.5737 7.14232C12.6741 7.43145 12.6553 7.77127 12.3244 8.1017L11.9934 8.43307L12.3244 8.76538C12.3647 8.80575 12.4228 8.89774 12.4687 9.06108C12.5137 9.21784 12.5391 9.40841 12.5391 9.60648C12.5391 9.80549 12.5137 9.99511 12.4687 10.1528C12.4219 10.3162 12.3647 10.4081 12.3244 10.4485L11.9934 10.7799L12.3244 11.1122C12.3684 11.1563 12.4266 11.2783 12.3291 11.5703C12.2275 11.8534 12.066 12.1112 11.8556 12.326L11.5247 12.6573L11.8556 12.9896C11.8612 12.9943 11.8941 13.0366 11.8941 13.1492C11.8899 13.2869 11.8509 13.4213 11.7806 13.5397C11.6259 13.8101 11.3091 14.0654 10.7812 14.0654V14.0664Z" fill="white"/>
</g>
<path d="M4.82031 6.68311C4.99888 8.11354 5.24888 11.4035 4.82031 13.1201" stroke="white" stroke-linecap="round" stroke-linejoin="round"/>
<defs>
<clipPath id="clip0_724_48675">
<rect width="15" height="15.0196" fill="white" transform="translate(0 0.247314)"/>
</clipPath>
</defs>
</svg>
