<svg width="15" height="16" viewBox="0 0 15 16" fill="none" xmlns="http://www.w3.org/2000/svg">
<g clip-path="url(#clip0_767_24184)">
<path d="M8.31 0.290575C7.41375 0.0662197 6.58125 0.744917 6.52125 1.62356C6.45375 2.61016 6.30562 3.51603 6.12 4.05486C6.00281 4.3928 5.67094 5.00579 5.145 5.59343C4.62281 6.17826 3.94312 6.69925 3.14719 6.91703C2.51719 7.08882 1.875 7.63516 1.875 8.43307V12.1889C1.875 12.9821 2.51437 13.5632 3.2325 13.6392C4.23562 13.7463 4.69875 14.0288 5.17125 14.3179L5.21625 14.3461C5.47125 14.501 5.75812 14.6728 6.12562 14.8004C6.49781 14.9281 6.93281 15.0041 7.5 15.0041H10.7812C11.6597 15.0041 12.2803 14.5564 12.5944 14.0053C12.7462 13.7453 12.8282 13.4504 12.8325 13.1492C12.8325 13.0065 12.8109 12.8563 12.7603 12.7137C12.9487 12.4668 13.1166 12.1711 13.2178 11.8679C13.3209 11.5581 13.3791 11.1526 13.2216 10.7893C13.2862 10.6672 13.3341 10.5368 13.3706 10.411C13.4428 10.1575 13.4766 9.87777 13.4766 9.60648C13.4766 9.33612 13.4428 9.05732 13.3706 8.80293C13.3378 8.68598 13.2945 8.57224 13.2412 8.46311C13.4054 8.22925 13.511 7.95931 13.5492 7.67603C13.5874 7.39275 13.557 7.10443 13.4606 6.83536C13.2675 6.27964 12.8212 5.80276 12.3356 5.6413C11.5416 5.37658 10.6453 5.38222 9.97687 5.44323C9.8381 5.45574 9.69963 5.47139 9.56156 5.49017C9.88679 4.09559 9.86683 2.64256 9.50344 1.25746C9.44021 1.03554 9.31893 0.834552 9.15213 0.675292C8.98534 0.516032 8.77908 0.40428 8.55469 0.351592L8.31 0.290575Z" fill="white"/>
</g>
<defs>
<clipPath id="clip0_767_24184">
<rect width="15" height="15.0196" fill="white" transform="translate(0 0.247314)"/>
</clipPath>
</defs>
</svg>
