<svg width="18" height="18" viewBox="0 0 18 18" fill="none" xmlns="http://www.w3.org/2000/svg">
<g clip-path="url(#clip0_730_61925)">
<path fill-rule="evenodd" clip-rule="evenodd" d="M9.00183 3.09058L8.19521 2.26145C6.30183 0.315203 2.83008 0.986828 1.57683 3.4337C0.98846 4.58458 0.85571 6.2462 1.93008 8.36683C2.96508 10.4087 5.11833 12.8545 9.00183 15.5185C12.8853 12.8545 15.0375 10.4087 16.0736 8.36683C17.148 6.24508 17.0163 4.58458 16.4268 3.4337C15.1736 0.986828 11.7018 0.314078 9.80846 2.26033L9.00183 3.09058ZM9.00183 16.8741C-8.24779 5.47558 3.69071 -3.42092 8.80383 1.28495C8.87133 1.34683 8.93771 1.41095 9.00183 1.47733C9.06531 1.41101 9.13136 1.34721 9.19983 1.28608C14.3118 -3.42317 26.2515 5.47445 9.00183 16.8741Z" fill="white"/>
</g>
<defs>
<clipPath id="clip0_730_61925">
<rect width="18" height="18" fill="white"/>
</clipPath>
</defs>
</svg>
