<svg width="36" height="37" viewBox="0 0 36 37" fill="none" xmlns="http://www.w3.org/2000/svg">
<rect y="0.316406" width="36" height="36" rx="8" fill="#292E37"/>
<path fill-rule="evenodd" clip-rule="evenodd" d="M9 18.3164C9 14.7213 9 12.9237 9.85669 11.629C10.2392 11.0508 10.7344 10.5557 11.3126 10.1731C12.6073 9.31641 14.4049 9.31641 18 9.31641C21.5951 9.31641 23.3927 9.31641 24.6874 10.1731C25.2656 10.5557 25.7608 11.0508 26.1433 11.629C27 12.9237 27 14.7213 27 18.3164C27 21.9115 27 23.7091 26.1433 25.0039C25.7608 25.582 25.2656 26.0772 24.6874 26.4597C23.3927 27.3164 21.5951 27.3164 18 27.3164C14.4049 27.3164 12.6073 27.3164 11.3126 26.4597C10.7344 26.0772 10.2392 25.582 9.85669 25.0039C9 23.7091 9 21.9115 9 18.3164ZM22.6596 18.3165C22.6596 20.8898 20.5735 22.9759 18.0002 22.9759C15.4269 22.9759 13.3408 20.8898 13.3408 18.3165C13.3408 15.7431 15.4269 13.657 18.0002 13.657C20.5735 13.657 22.6596 15.7431 22.6596 18.3165ZM18.0002 21.3995C19.7029 21.3995 21.0832 20.0191 21.0832 18.3165C21.0832 16.6138 19.7029 15.2334 18.0002 15.2334C16.2975 15.2334 14.9172 16.6138 14.9172 18.3165C14.9172 20.0191 16.2975 21.3995 18.0002 21.3995ZM22.8436 14.5178C23.4483 14.5178 23.9385 14.0276 23.9385 13.4229C23.9385 12.8183 23.4483 12.3281 22.8436 12.3281C22.239 12.3281 21.7488 12.8183 21.7488 13.4229C21.7488 14.0276 22.239 14.5178 22.8436 14.5178Z" fill="white"/>
</svg>
