<svg width="21" height="19" viewBox="0 0 21 19" fill="none" xmlns="http://www.w3.org/2000/svg">
<path d="M8.16844 7.17395L7.57139 8.85862H8.7636L8.16844 7.17395ZM8.16844 7.17395L7.57139 8.85862H8.7636L8.16844 7.17395ZM10.3589 0C4.63889 0 0 3.63315 0 8.11804C0 11.0163 1.93805 13.5602 4.85548 14.9943C3.40712 19.9597 2.55582 20.2838 8.51875 16.1061C9.12836 16.192 9.74325 16.2348 10.3589 16.2342C16.0788 16.2342 20.7177 12.5992 20.7177 8.11616C20.7177 3.63315 16.0788 0 10.3589 0ZM4.63135 10.9503C3.59735 10.9503 4.20758 9.52005 4.03431 6.85549C3.65762 6.79142 2.51438 7.11177 2.51438 6.27321C2.51537 6.1186 2.57759 5.9707 2.68738 5.86191C2.79718 5.75311 2.9456 5.69231 3.10013 5.69281C5.2736 5.84921 6.74645 5.28766 6.74645 6.27321C6.74645 7.12684 5.64652 6.78388 5.2284 6.85549C5.05513 9.51062 5.66347 10.9503 4.63135 10.9503ZM10.2515 10.8599C9.32298 11.282 9.30038 10.3303 9.07813 9.91766H7.25686C7.03273 10.3398 7.01389 11.2895 6.08348 10.8599C5.38473 10.5395 6.52232 8.91327 7.37175 6.27697C7.42611 6.10861 7.53242 5.96183 7.67539 5.85771C7.81837 5.75359 7.99066 5.6975 8.16749 5.6975C8.34433 5.6975 8.51662 5.75359 8.6596 5.85771C8.80257 5.96183 8.90888 6.10861 8.96324 6.27697C9.82962 8.96415 10.954 10.5395 10.2515 10.8599ZM11.3552 10.8599C10.3551 10.8599 10.9634 9.50874 10.7902 6.28074C10.7902 5.49494 12.0106 5.49683 12.0106 6.28074V9.77444C12.587 9.8517 13.8526 9.4899 13.8526 10.319C13.8451 11.1953 12.4853 10.7525 11.3552 10.8636V10.8599ZM16.8812 10.6884L15.4799 8.84166L15.2727 9.04894V10.3473C15.2727 10.4258 15.2572 10.5036 15.2271 10.5761C15.1969 10.6485 15.1528 10.7144 15.0971 10.7697C15.0414 10.8251 14.9754 10.8688 14.9027 10.8985C14.8301 10.9282 14.7523 10.9433 14.6738 10.9428C13.636 10.9428 14.2576 9.44656 14.0768 6.28451C14.0778 6.12674 14.1411 5.97576 14.253 5.86455C14.3648 5.75334 14.5161 5.69092 14.6738 5.69092C15.576 5.69092 15.1861 6.96855 15.2709 7.56214C16.9659 5.94343 16.9226 5.77195 17.2711 5.77195C17.7513 5.77195 18.0451 6.36931 17.725 6.68589L16.3632 8.0389L17.8342 9.97607C18.3145 10.6036 17.3558 11.3215 16.8812 10.6922V10.6884ZM7.57139 8.85862H8.7636L8.16844 7.17395L7.57139 8.85862ZM8.16844 7.17395L7.57139 8.85862H8.7636L8.16844 7.17395ZM8.16844 7.17395L7.57139 8.85862H8.7636L8.16844 7.17395Z" fill="#371C1D"/>
</svg>
