<svg width="36" height="37" viewBox="0 0 36 37" fill="none" xmlns="http://www.w3.org/2000/svg">
<rect y="0.316406" width="36" height="36" rx="8" fill="#292E37"/>
<path d="M12.9896 16.9581C12.6245 16.9581 12.3281 17.2578 12.3281 17.6267C12.3281 17.9957 12.6245 18.2953 12.9896 18.2953C13.3546 18.2953 13.651 17.9957 13.651 17.6267C13.651 17.2578 13.3546 16.9581 12.9896 16.9581Z" fill="white"/>
<path d="M19.5205 18.3275C19.9137 18.3275 20.2324 18.0054 20.2324 17.6079C20.2324 17.2105 19.9137 16.8884 19.5205 16.8884C19.1273 16.8884 18.8086 17.2105 18.8086 17.6079C18.8086 18.0054 19.1273 18.3275 19.5205 18.3275Z" fill="white"/>
<path d="M25.4327 10.3164H11.3689C9.95022 10.3164 8.80078 11.4782 8.80078 12.9121V21.3482C8.80078 22.7822 9.95022 23.944 11.3689 23.944H16.3368L18.026 27.9671C18.026 27.9671 18.1425 28.3164 18.4234 28.3164C18.7043 28.3164 18.8208 27.9671 18.8208 27.9671L20.51 23.944H25.4314C26.8501 23.944 27.9995 22.7822 27.9995 21.3482V12.9121C27.9995 11.4782 26.8501 10.3164 25.4314 10.3164H25.4327ZM14.8327 17.7739C14.825 19.3164 13.2471 19.3596 13.2471 19.3596C12.6374 19.3596 12.2931 18.9514 12.2931 18.9514V19.2287H11.145V14.4403C11.145 14.4403 11.1398 14.439 11.145 14.4376V14.4403C11.2162 14.452 12.2931 14.4376 12.2931 14.4376V16.2693C12.5636 15.8035 13.3442 15.8114 13.3442 15.8114C15.045 15.971 14.8327 17.7739 14.8327 17.7739ZM16.8546 15.9579V19.2366H15.7298V15.9906C15.7298 15.5484 15.1874 15.4267 15.1874 15.4267V14.282C16.9828 14.3552 16.8533 15.9579 16.8533 15.9579H16.8546ZM19.5198 19.3622C18.4791 19.3622 17.6351 18.5772 17.6351 17.6077C17.6351 16.6383 18.4791 15.8533 19.5198 15.8533C20.5605 15.8533 21.4045 16.6383 21.4045 17.6077C21.4045 18.5772 20.5605 19.3622 19.5198 19.3622ZM25.6799 19.3622C25.6799 19.3622 25.6954 21.0277 24.0218 21.0277H23.5118V19.9483H23.8185C23.8185 19.9483 24.5227 20.0137 24.5136 18.9174C24.5136 18.9174 24.3764 19.3609 23.3888 19.3609C23.3888 19.3609 21.9895 19.2588 21.9895 17.8786V17.3552C21.9895 17.3552 22.0219 15.9239 23.5584 15.8101C23.5584 15.8101 24.1654 15.7447 24.5369 16.2523V15.9004H25.6773V19.3609L25.6799 19.3622Z" fill="white"/>
<path d="M23.8943 18.3102C24.2782 18.3102 24.5894 17.9956 24.5894 17.6076C24.5894 17.2196 24.2782 16.905 23.8943 16.905C23.5104 16.905 23.1992 17.2196 23.1992 17.6076C23.1992 17.9956 23.5104 18.3102 23.8943 18.3102Z" fill="white"/>
</svg>
