<svg width="30" height="32" viewBox="0 0 30 32" fill="none" xmlns="http://www.w3.org/2000/svg">
<path d="M15 16C16.4918 16 17.9226 15.3679 18.9775 14.2426C20.0324 13.1174 20.625 11.5913 20.625 10C20.625 8.4087 20.0324 6.88258 18.9775 5.75736C17.9226 4.63214 16.4918 4 15 4C13.5082 4 12.0774 4.63214 11.0225 5.75736C9.96763 6.88258 9.375 8.4087 9.375 10C9.375 11.5913 9.96763 13.1174 11.0225 14.2426C12.0774 15.3679 13.5082 16 15 16ZM18.75 10C18.75 11.0609 18.3549 12.0783 17.6516 12.8284C16.9484 13.5786 15.9946 14 15 14C14.0054 14 13.0516 13.5786 12.3483 12.8284C11.6451 12.0783 11.25 11.0609 11.25 10C11.25 8.93913 11.6451 7.92172 12.3483 7.17157C13.0516 6.42143 14.0054 6 15 6C15.9946 6 16.9484 6.42143 17.6516 7.17157C18.3549 7.92172 18.75 8.93913 18.75 10ZM26.25 26C26.25 28 24.375 28 24.375 28H5.625C5.625 28 3.75 28 3.75 26C3.75 24 5.625 18 15 18C24.375 18 26.25 24 26.25 26ZM24.375 25.992C24.3731 25.5 24.0863 24.02 22.815 22.664C21.5925 21.36 19.2919 20 15 20C10.7063 20 8.4075 21.36 7.185 22.664C5.91375 24.02 5.62875 25.5 5.625 25.992H24.375Z" fill="white"/>
</svg>
