<svg width="48" height="48" viewBox="0 0 48 48" fill="none" xmlns="http://www.w3.org/2000/svg">
<circle cx="24" cy="24" r="24" fill="#FEE500"/>
<path d="M22.1684 23.174L21.5714 24.8586H22.7636L22.1684 23.174ZM22.1684 23.174L21.5714 24.8586H22.7636L22.1684 23.174ZM24.3589 16C18.6389 16 14 19.6331 14 24.118C14 27.0163 15.938 29.5602 18.8555 30.9943C17.4071 35.9597 16.5558 36.2838 22.5188 32.1061C23.1284 32.192 23.7432 32.2348 24.3589 32.2342C30.0788 32.2342 34.7177 28.5992 34.7177 24.1162C34.7177 19.6331 30.0788 16 24.3589 16ZM18.6314 26.9503C17.5974 26.9503 18.2076 25.52 18.0343 22.8555C17.6576 22.7914 16.5144 23.1118 16.5144 22.2732C16.5154 22.1186 16.5776 21.9707 16.6874 21.8619C16.7972 21.7531 16.9456 21.6923 17.1001 21.6928C19.2736 21.8492 20.7464 21.2877 20.7464 22.2732C20.7464 23.1268 19.6465 22.7839 19.2284 22.8555C19.0551 25.5106 19.6635 26.9503 18.6314 26.9503ZM24.2515 26.8599C23.323 27.282 23.3004 26.3303 23.0781 25.9177H21.2569C21.0327 26.3398 21.0139 27.2895 20.0835 26.8599C19.3847 26.5395 20.5223 24.9133 21.3717 22.277C21.4261 22.1086 21.5324 21.9618 21.6754 21.8577C21.8184 21.7536 21.9907 21.6975 22.1675 21.6975C22.3443 21.6975 22.5166 21.7536 22.6596 21.8577C22.8026 21.9618 22.9089 22.1086 22.9632 22.277C23.8296 24.9641 24.954 26.5395 24.2515 26.8599ZM25.3552 26.8599C24.3551 26.8599 24.9634 25.5087 24.7902 22.2807C24.7902 21.4949 26.0106 21.4968 26.0106 22.2807V25.7744C26.587 25.8517 27.8526 25.4899 27.8526 26.319C27.8451 27.1953 26.4853 26.7525 25.3552 26.8636V26.8599ZM30.8812 26.6884L29.4799 24.8417L29.2727 25.0489V26.3473C29.2727 26.4258 29.2572 26.5036 29.2271 26.5761C29.1969 26.6485 29.1528 26.7144 29.0971 26.7697C29.0414 26.8251 28.9754 26.8688 28.9027 26.8985C28.8301 26.9282 28.7523 26.9433 28.6738 26.9428C27.636 26.9428 28.2576 25.4466 28.0768 22.2845C28.0778 22.1267 28.1411 21.9758 28.253 21.8645C28.3648 21.7533 28.5161 21.6909 28.6738 21.6909C29.576 21.6909 29.1861 22.9686 29.2709 23.5621C30.9659 21.9434 30.9226 21.772 31.2711 21.772C31.7513 21.772 32.0451 22.3693 31.725 22.6859L30.3632 24.0389L31.8342 25.9761C32.3145 26.6036 31.3558 27.3215 30.8812 26.6922V26.6884ZM21.5714 24.8586H22.7636L22.1684 23.174L21.5714 24.8586ZM22.1684 23.174L21.5714 24.8586H22.7636L22.1684 23.174ZM22.1684 23.174L21.5714 24.8586H22.7636L22.1684 23.174Z" fill="#371C1D"/>
</svg>
