<svg width="55" height="55" viewBox="0 0 55 55" fill="none" xmlns="http://www.w3.org/2000/svg">
<circle cx="27.5" cy="27.5" r="27.5" fill="#3B4048"/>
<g clip-path="url(#clip0_746_68966)">
<path d="M31.1254 20.4377C31.1253 19.6312 31.4088 18.8503 31.9263 18.2317C32.4438 17.613 33.1623 17.1961 33.9562 17.0537C34.75 16.9114 35.5687 17.0527 36.2689 17.453C36.9691 17.8533 37.5062 18.487 37.7864 19.2433C38.0665 19.9996 38.0718 20.8304 37.8013 21.5902C37.5308 22.35 37.0017 22.9905 36.3066 23.3996C35.6116 23.8088 34.7948 23.9605 33.9992 23.8282C33.2036 23.696 32.4798 23.2882 31.9545 22.6762L22.7172 26.9662C22.9296 27.6392 22.9296 28.3612 22.7172 29.0342L31.9545 33.3242C32.5098 32.6784 33.285 32.2617 34.13 32.155C34.975 32.0482 35.8295 32.2589 36.528 32.7463C37.2265 33.2336 37.7191 33.9629 37.9105 34.7929C38.1019 35.6228 37.9784 36.4942 37.5639 37.2382C37.1494 37.9823 36.4735 38.5459 35.6671 38.82C34.8607 39.0941 33.9813 39.059 33.1992 38.7216C32.4172 38.3842 31.7883 37.7686 31.4343 36.9939C31.0804 36.2192 31.0266 35.3407 31.2835 34.5287L22.0462 30.2387C21.589 30.7716 20.9794 31.1517 20.2997 31.3278C19.6199 31.5039 18.9025 31.4677 18.244 31.2238C17.5855 30.98 17.0174 30.5404 16.6162 29.9641C16.2151 29.3878 16 28.7024 16 28.0002C16 27.298 16.2151 26.6126 16.6162 26.0363C17.0174 25.46 17.5855 25.0203 18.244 24.7765C18.9025 24.5327 19.6199 24.4964 20.2997 24.6726C20.9794 24.8487 21.589 25.2288 22.0462 25.7617L31.2835 21.4717C31.1783 21.1371 31.125 20.7884 31.1254 20.4377Z" fill="white"/>
</g>
<defs>
<clipPath id="clip0_746_68966">
<rect width="22" height="22" fill="white" transform="translate(16 17)"/>
</clipPath>
</defs>
</svg>
