<svg width="36" height="37" viewBox="0 0 36 37" fill="none" xmlns="http://www.w3.org/2000/svg">
<rect y="0.316406" width="36" height="36" rx="8" fill="#292E37"/>
<path d="M18.4402 25.2961L14.378 25.2202C13.0628 25.1937 11.7443 25.2465 10.4548 24.9724C8.49323 24.5629 8.35427 22.555 8.20886 20.8708C8.0085 18.5029 8.08606 16.0921 8.46417 13.744C8.67763 12.4265 9.51766 11.6404 10.8167 11.5548C15.2021 11.2443 19.6166 11.2811 23.9922 11.426C24.4544 11.4393 24.9197 11.5118 25.3753 11.5944C27.6246 11.9974 27.6795 14.2728 27.8253 16.1882C27.9707 18.1234 27.9093 20.0686 27.6314 21.9906C27.4084 23.582 26.9818 24.9166 25.1814 25.0454C22.9257 25.2139 20.7217 25.3495 18.4596 25.3063C18.4597 25.2961 18.4467 25.2961 18.4402 25.2961ZM16.052 21.2671C17.7519 20.2697 19.4194 19.2889 21.1096 18.2982C19.4065 17.3008 17.7422 16.32 16.052 15.3293V21.2671Z" fill="white"/>
</svg>
