<svg width="1382" height="335" viewBox="0 0 1382 335" fill="none" xmlns="http://www.w3.org/2000/svg">
<mask id="path-1-outside-1_724_15833" maskUnits="userSpaceOnUse" x="0" y="0" width="1382" height="335" fill="black">
<rect fill="white" width="1382" height="335"/>
<path d="M164.404 227.459L117.81 308.999H97.6191L51.5424 230.048V327.119H9.34855V145.919H46.6241L108.491 253.086L169.323 145.919H206.598L206.857 327.119H164.663L164.404 227.459Z"/>
<path d="M281.447 145.919V327.119H236.405V145.919H281.447Z"/>
<path d="M395.158 330.484C377.383 330.484 361.334 326.515 347.01 318.577C332.687 310.466 321.47 299.249 313.359 284.925C305.248 270.602 301.193 254.466 301.193 236.519C301.193 218.572 305.248 202.436 313.359 188.113C321.642 173.789 332.946 162.658 347.269 154.72C361.593 146.609 377.642 142.554 395.417 142.554C410.776 142.554 424.668 145.487 437.093 151.355C449.691 157.05 460.045 165.247 468.156 175.946L439.164 203.903C427.947 189.752 414.141 182.677 397.746 182.677C387.91 182.677 379.109 184.92 371.343 189.407C363.75 193.894 357.796 200.279 353.482 208.562C349.168 216.673 347.01 225.992 347.01 236.519C347.01 247.046 349.168 256.365 353.482 264.476C357.796 272.587 363.75 278.885 371.343 283.372C379.109 287.859 387.91 290.103 397.746 290.103C414.313 290.103 428.119 283.027 439.164 268.876L468.156 296.833C460.045 307.705 449.691 316.075 437.093 321.942C424.668 327.637 410.689 330.484 395.158 330.484Z"/>
<path d="M621.36 327.119H485.201V145.919H617.995V183.712H530.242V216.846H607.9V253.604H530.242V289.067H621.36V327.119Z"/>
<path d="M848.76 227.459L802.165 308.999H781.974L735.898 230.048V327.119H693.704V145.919H730.979L792.846 253.086L853.678 145.919H890.953L891.212 327.119H849.019L848.76 227.459Z"/>
<path d="M959.33 290.62L945.352 327.119H899.017L975.638 145.919H1020.16L1096.53 327.119H1049.41L1035.43 290.62H959.33ZM997.382 192.254L973.568 254.639H1021.2L997.382 192.254Z"/>
<path d="M1076.29 184.489V145.919H1228.76V184.489H1175.18V327.119H1130.14V184.489H1076.29Z"/>
<path d="M1377.84 327.119H1241.68V145.919H1374.47V183.712H1286.72V216.846H1364.38V253.604H1286.72V289.067H1377.84V327.119Z"/>
<path d="M80.8808 51.371V103.401H77.3862V4H80.8808V48.1353H96.2828V51.371H80.8808ZM54.089 8.78887V96.1534H4V8.78887H54.089ZM50.8533 92.7882V12.2834H7.49458V92.7882H50.8533Z"/>
<path d="M182.598 103.401V4H186.222V103.401H182.598ZM133.674 7.36515C139.024 7.36515 143.77 9.04773 147.911 12.4129C152.053 15.778 155.289 20.8258 157.618 27.5561C159.948 34.2864 161.113 42.613 161.113 52.5358C161.113 62.4587 159.948 70.7853 157.618 77.5156C155.289 84.2459 152.053 89.2936 147.911 92.6588C143.77 96.0239 139.024 97.7065 133.674 97.7065C128.238 97.7065 123.449 96.0239 119.307 92.6588C115.166 89.2936 111.93 84.2459 109.6 77.5156C107.271 70.7853 106.106 62.4587 106.106 52.5358C106.106 42.613 107.271 34.2864 109.6 27.5561C111.93 20.8258 115.166 15.778 119.307 12.4129C123.449 9.04773 128.238 7.36515 133.674 7.36515ZM133.674 10.8597C129.015 10.8597 124.873 12.4129 121.249 15.5192C117.625 18.6255 114.777 23.3281 112.707 29.6269C110.636 35.8395 109.6 43.4758 109.6 52.5358C109.6 61.5959 110.636 69.2753 112.707 75.5742C114.777 81.7868 117.625 86.4462 121.249 89.5525C124.873 92.6588 129.015 94.2119 133.674 94.2119C138.247 94.2119 142.303 92.6588 145.84 89.5525C149.378 86.4462 152.182 81.7868 154.253 75.5742C156.324 69.2753 157.36 61.5959 157.36 52.5358C157.36 43.4758 156.324 35.8395 154.253 29.6269C152.182 23.3281 149.378 18.6255 145.84 15.5192C142.303 12.4129 138.247 10.8597 133.674 10.8597Z"/>
<path d="M247.946 32.4744C242.596 42.4835 236.125 50.5081 228.532 56.5481C220.939 62.5882 213.13 65.6082 205.105 65.6082V62.1136C212.267 62.1136 219.17 59.4819 225.814 54.2184C232.544 48.8687 238.325 41.8364 243.157 33.1215C248.076 24.4066 251.613 15.0877 253.77 5.16486L257.524 6.32972C255.539 14.6995 252.821 22.422 249.37 29.4975L292.34 63.2784L290.14 65.7376L247.946 32.4744ZM296.482 93.9531V97.3182H203.293V93.9531H296.482Z"/>
<path d="M393.669 103.401H390.045V4H393.669V103.401ZM371.667 4.64715V101.719H368.043V50.8533H348.111V96.1534H309.929V8.78887H348.111V47.4881H368.043V4.64715H371.667ZM313.424 12.2834V92.7882H344.487V12.2834H313.424Z"/>
<path d="M490.08 103.401V4H493.704V103.401H490.08ZM441.156 7.36515C446.506 7.36515 451.252 9.04773 455.393 12.4129C459.535 15.778 462.771 20.8258 465.101 27.5561C467.43 34.2864 468.595 42.613 468.595 52.5358C468.595 62.4587 467.43 70.7853 465.101 77.5156C462.771 84.2459 459.535 89.2936 455.393 92.6588C451.252 96.0239 446.506 97.7065 441.156 97.7065C435.72 97.7065 430.931 96.0239 426.79 92.6588C422.648 89.2936 419.412 84.2459 417.082 77.5156C414.753 70.7853 413.588 62.4587 413.588 52.5358C413.588 42.613 414.753 34.2864 417.082 27.5561C419.412 20.8258 422.648 15.778 426.79 12.4129C430.931 9.04773 435.72 7.36515 441.156 7.36515ZM441.156 10.8597C436.497 10.8597 432.355 12.4129 428.731 15.5192C425.107 18.6255 422.26 23.3281 420.189 29.6269C418.118 35.8395 417.082 43.4758 417.082 52.5358C417.082 61.5959 418.118 69.2753 420.189 75.5742C422.26 81.7868 425.107 86.4462 428.731 89.5525C432.355 92.6588 436.497 94.2119 441.156 94.2119C445.729 94.2119 449.785 92.6588 453.323 89.5525C456.86 86.4462 459.665 81.7868 461.735 75.5742C463.806 69.2753 464.842 61.5959 464.842 52.5358C464.842 43.4758 463.806 35.8395 461.735 29.6269C459.665 23.3281 456.86 18.6255 453.323 15.5192C449.785 12.4129 445.729 10.8597 441.156 10.8597Z"/>
<path d="M518.282 69.6205V8.78887H596.846V12.2834H521.647V37.3927H596.069V40.8872H521.647V66.1259H598.658V69.6205H518.282ZM603.964 97.3182H510.775V93.9531H603.964V97.3182Z"/>
</mask>
<path d="M164.404 227.459L117.81 308.999H97.6191L51.5424 230.048V327.119H9.34855V145.919H46.6241L108.491 253.086L169.323 145.919H206.598L206.857 327.119H164.663L164.404 227.459Z" fill="white"/>
<path d="M281.447 145.919V327.119H236.405V145.919H281.447Z" fill="white"/>
<path d="M395.158 330.484C377.383 330.484 361.334 326.515 347.01 318.577C332.687 310.466 321.47 299.249 313.359 284.925C305.248 270.602 301.193 254.466 301.193 236.519C301.193 218.572 305.248 202.436 313.359 188.113C321.642 173.789 332.946 162.658 347.269 154.72C361.593 146.609 377.642 142.554 395.417 142.554C410.776 142.554 424.668 145.487 437.093 151.355C449.691 157.05 460.045 165.247 468.156 175.946L439.164 203.903C427.947 189.752 414.141 182.677 397.746 182.677C387.91 182.677 379.109 184.92 371.343 189.407C363.75 193.894 357.796 200.279 353.482 208.562C349.168 216.673 347.01 225.992 347.01 236.519C347.01 247.046 349.168 256.365 353.482 264.476C357.796 272.587 363.75 278.885 371.343 283.372C379.109 287.859 387.91 290.103 397.746 290.103C414.313 290.103 428.119 283.027 439.164 268.876L468.156 296.833C460.045 307.705 449.691 316.075 437.093 321.942C424.668 327.637 410.689 330.484 395.158 330.484Z" fill="white"/>
<path d="M621.36 327.119H485.201V145.919H617.995V183.712H530.242V216.846H607.9V253.604H530.242V289.067H621.36V327.119Z" fill="white"/>
<path d="M848.76 227.459L802.165 308.999H781.974L735.898 230.048V327.119H693.704V145.919H730.979L792.846 253.086L853.678 145.919H890.953L891.212 327.119H849.019L848.76 227.459Z" fill="white"/>
<path d="M959.33 290.62L945.352 327.119H899.017L975.638 145.919H1020.16L1096.53 327.119H1049.41L1035.43 290.62H959.33ZM997.382 192.254L973.568 254.639H1021.2L997.382 192.254Z" fill="white"/>
<path d="M1076.29 184.489V145.919H1228.76V184.489H1175.18V327.119H1130.14V184.489H1076.29Z" fill="white"/>
<path d="M1377.84 327.119H1241.68V145.919H1374.47V183.712H1286.72V216.846H1364.38V253.604H1286.72V289.067H1377.84V327.119Z" fill="white"/>
<path d="M80.8808 51.371V103.401H77.3862V4H80.8808V48.1353H96.2828V51.371H80.8808ZM54.089 8.78887V96.1534H4V8.78887H54.089ZM50.8533 92.7882V12.2834H7.49458V92.7882H50.8533Z" fill="white"/>
<path d="M182.598 103.401V4H186.222V103.401H182.598ZM133.674 7.36515C139.024 7.36515 143.77 9.04773 147.911 12.4129C152.053 15.778 155.289 20.8258 157.618 27.5561C159.948 34.2864 161.113 42.613 161.113 52.5358C161.113 62.4587 159.948 70.7853 157.618 77.5156C155.289 84.2459 152.053 89.2936 147.911 92.6588C143.77 96.0239 139.024 97.7065 133.674 97.7065C128.238 97.7065 123.449 96.0239 119.307 92.6588C115.166 89.2936 111.93 84.2459 109.6 77.5156C107.271 70.7853 106.106 62.4587 106.106 52.5358C106.106 42.613 107.271 34.2864 109.6 27.5561C111.93 20.8258 115.166 15.778 119.307 12.4129C123.449 9.04773 128.238 7.36515 133.674 7.36515ZM133.674 10.8597C129.015 10.8597 124.873 12.4129 121.249 15.5192C117.625 18.6255 114.777 23.3281 112.707 29.6269C110.636 35.8395 109.6 43.4758 109.6 52.5358C109.6 61.5959 110.636 69.2753 112.707 75.5742C114.777 81.7868 117.625 86.4462 121.249 89.5525C124.873 92.6588 129.015 94.2119 133.674 94.2119C138.247 94.2119 142.303 92.6588 145.84 89.5525C149.378 86.4462 152.182 81.7868 154.253 75.5742C156.324 69.2753 157.36 61.5959 157.36 52.5358C157.36 43.4758 156.324 35.8395 154.253 29.6269C152.182 23.3281 149.378 18.6255 145.84 15.5192C142.303 12.4129 138.247 10.8597 133.674 10.8597Z" fill="white"/>
<path d="M247.946 32.4744C242.596 42.4835 236.125 50.5081 228.532 56.5481C220.939 62.5882 213.13 65.6082 205.105 65.6082V62.1136C212.267 62.1136 219.17 59.4819 225.814 54.2184C232.544 48.8687 238.325 41.8364 243.157 33.1215C248.076 24.4066 251.613 15.0877 253.77 5.16486L257.524 6.32972C255.539 14.6995 252.821 22.422 249.37 29.4975L292.34 63.2784L290.14 65.7376L247.946 32.4744ZM296.482 93.9531V97.3182H203.293V93.9531H296.482Z" fill="white"/>
<path d="M393.669 103.401H390.045V4H393.669V103.401ZM371.667 4.64715V101.719H368.043V50.8533H348.111V96.1534H309.929V8.78887H348.111V47.4881H368.043V4.64715H371.667ZM313.424 12.2834V92.7882H344.487V12.2834H313.424Z" fill="white"/>
<path d="M490.08 103.401V4H493.704V103.401H490.08ZM441.156 7.36515C446.506 7.36515 451.252 9.04773 455.393 12.4129C459.535 15.778 462.771 20.8258 465.101 27.5561C467.43 34.2864 468.595 42.613 468.595 52.5358C468.595 62.4587 467.43 70.7853 465.101 77.5156C462.771 84.2459 459.535 89.2936 455.393 92.6588C451.252 96.0239 446.506 97.7065 441.156 97.7065C435.72 97.7065 430.931 96.0239 426.79 92.6588C422.648 89.2936 419.412 84.2459 417.082 77.5156C414.753 70.7853 413.588 62.4587 413.588 52.5358C413.588 42.613 414.753 34.2864 417.082 27.5561C419.412 20.8258 422.648 15.778 426.79 12.4129C430.931 9.04773 435.72 7.36515 441.156 7.36515ZM441.156 10.8597C436.497 10.8597 432.355 12.4129 428.731 15.5192C425.107 18.6255 422.26 23.3281 420.189 29.6269C418.118 35.8395 417.082 43.4758 417.082 52.5358C417.082 61.5959 418.118 69.2753 420.189 75.5742C422.26 81.7868 425.107 86.4462 428.731 89.5525C432.355 92.6588 436.497 94.2119 441.156 94.2119C445.729 94.2119 449.785 92.6588 453.323 89.5525C456.86 86.4462 459.665 81.7868 461.735 75.5742C463.806 69.2753 464.842 61.5959 464.842 52.5358C464.842 43.4758 463.806 35.8395 461.735 29.6269C459.665 23.3281 456.86 18.6255 453.323 15.5192C449.785 12.4129 445.729 10.8597 441.156 10.8597Z" fill="white"/>
<path d="M518.282 69.6205V8.78887H596.846V12.2834H521.647V37.3927H596.069V40.8872H521.647V66.1259H598.658V69.6205H518.282ZM603.964 97.3182H510.775V93.9531H603.964V97.3182Z" fill="white"/>
<path d="M164.404 227.459L117.81 308.999H97.6191L51.5424 230.048V327.119H9.34855V145.919H46.6241L108.491 253.086L169.323 145.919H206.598L206.857 327.119H164.663L164.404 227.459Z" stroke="white" stroke-width="7.62144" mask="url(#path-1-outside-1_724_15833)"/>
<path d="M281.447 145.919V327.119H236.405V145.919H281.447Z" stroke="white" stroke-width="7.62144" mask="url(#path-1-outside-1_724_15833)"/>
<path d="M395.158 330.484C377.383 330.484 361.334 326.515 347.01 318.577C332.687 310.466 321.47 299.249 313.359 284.925C305.248 270.602 301.193 254.466 301.193 236.519C301.193 218.572 305.248 202.436 313.359 188.113C321.642 173.789 332.946 162.658 347.269 154.72C361.593 146.609 377.642 142.554 395.417 142.554C410.776 142.554 424.668 145.487 437.093 151.355C449.691 157.05 460.045 165.247 468.156 175.946L439.164 203.903C427.947 189.752 414.141 182.677 397.746 182.677C387.91 182.677 379.109 184.92 371.343 189.407C363.75 193.894 357.796 200.279 353.482 208.562C349.168 216.673 347.01 225.992 347.01 236.519C347.01 247.046 349.168 256.365 353.482 264.476C357.796 272.587 363.75 278.885 371.343 283.372C379.109 287.859 387.91 290.103 397.746 290.103C414.313 290.103 428.119 283.027 439.164 268.876L468.156 296.833C460.045 307.705 449.691 316.075 437.093 321.942C424.668 327.637 410.689 330.484 395.158 330.484Z" stroke="white" stroke-width="7.62144" mask="url(#path-1-outside-1_724_15833)"/>
<path d="M621.36 327.119H485.201V145.919H617.995V183.712H530.242V216.846H607.9V253.604H530.242V289.067H621.36V327.119Z" stroke="white" stroke-width="7.62144" mask="url(#path-1-outside-1_724_15833)"/>
<path d="M848.76 227.459L802.165 308.999H781.974L735.898 230.048V327.119H693.704V145.919H730.979L792.846 253.086L853.678 145.919H890.953L891.212 327.119H849.019L848.76 227.459Z" stroke="white" stroke-width="7.62144" mask="url(#path-1-outside-1_724_15833)"/>
<path d="M959.33 290.62L945.352 327.119H899.017L975.638 145.919H1020.16L1096.53 327.119H1049.41L1035.43 290.62H959.33ZM997.382 192.254L973.568 254.639H1021.2L997.382 192.254Z" stroke="white" stroke-width="7.62144" mask="url(#path-1-outside-1_724_15833)"/>
<path d="M1076.29 184.489V145.919H1228.76V184.489H1175.18V327.119H1130.14V184.489H1076.29Z" stroke="white" stroke-width="7.62144" mask="url(#path-1-outside-1_724_15833)"/>
<path d="M1377.84 327.119H1241.68V145.919H1374.47V183.712H1286.72V216.846H1364.38V253.604H1286.72V289.067H1377.84V327.119Z" stroke="white" stroke-width="7.62144" mask="url(#path-1-outside-1_724_15833)"/>
<path d="M80.8808 51.371V103.401H77.3862V4H80.8808V48.1353H96.2828V51.371H80.8808ZM54.089 8.78887V96.1534H4V8.78887H54.089ZM50.8533 92.7882V12.2834H7.49458V92.7882H50.8533Z" stroke="white" stroke-width="7.62144" mask="url(#path-1-outside-1_724_15833)"/>
<path d="M182.598 103.401V4H186.222V103.401H182.598ZM133.674 7.36515C139.024 7.36515 143.77 9.04773 147.911 12.4129C152.053 15.778 155.289 20.8258 157.618 27.5561C159.948 34.2864 161.113 42.613 161.113 52.5358C161.113 62.4587 159.948 70.7853 157.618 77.5156C155.289 84.2459 152.053 89.2936 147.911 92.6588C143.77 96.0239 139.024 97.7065 133.674 97.7065C128.238 97.7065 123.449 96.0239 119.307 92.6588C115.166 89.2936 111.93 84.2459 109.6 77.5156C107.271 70.7853 106.106 62.4587 106.106 52.5358C106.106 42.613 107.271 34.2864 109.6 27.5561C111.93 20.8258 115.166 15.778 119.307 12.4129C123.449 9.04773 128.238 7.36515 133.674 7.36515ZM133.674 10.8597C129.015 10.8597 124.873 12.4129 121.249 15.5192C117.625 18.6255 114.777 23.3281 112.707 29.6269C110.636 35.8395 109.6 43.4758 109.6 52.5358C109.6 61.5959 110.636 69.2753 112.707 75.5742C114.777 81.7868 117.625 86.4462 121.249 89.5525C124.873 92.6588 129.015 94.2119 133.674 94.2119C138.247 94.2119 142.303 92.6588 145.84 89.5525C149.378 86.4462 152.182 81.7868 154.253 75.5742C156.324 69.2753 157.36 61.5959 157.36 52.5358C157.36 43.4758 156.324 35.8395 154.253 29.6269C152.182 23.3281 149.378 18.6255 145.84 15.5192C142.303 12.4129 138.247 10.8597 133.674 10.8597Z" stroke="white" stroke-width="7.62144" mask="url(#path-1-outside-1_724_15833)"/>
<path d="M247.946 32.4744C242.596 42.4835 236.125 50.5081 228.532 56.5481C220.939 62.5882 213.13 65.6082 205.105 65.6082V62.1136C212.267 62.1136 219.17 59.4819 225.814 54.2184C232.544 48.8687 238.325 41.8364 243.157 33.1215C248.076 24.4066 251.613 15.0877 253.77 5.16486L257.524 6.32972C255.539 14.6995 252.821 22.422 249.37 29.4975L292.34 63.2784L290.14 65.7376L247.946 32.4744ZM296.482 93.9531V97.3182H203.293V93.9531H296.482Z" stroke="white" stroke-width="7.62144" mask="url(#path-1-outside-1_724_15833)"/>
<path d="M393.669 103.401H390.045V4H393.669V103.401ZM371.667 4.64715V101.719H368.043V50.8533H348.111V96.1534H309.929V8.78887H348.111V47.4881H368.043V4.64715H371.667ZM313.424 12.2834V92.7882H344.487V12.2834H313.424Z" stroke="white" stroke-width="7.62144" mask="url(#path-1-outside-1_724_15833)"/>
<path d="M490.08 103.401V4H493.704V103.401H490.08ZM441.156 7.36515C446.506 7.36515 451.252 9.04773 455.393 12.4129C459.535 15.778 462.771 20.8258 465.101 27.5561C467.43 34.2864 468.595 42.613 468.595 52.5358C468.595 62.4587 467.43 70.7853 465.101 77.5156C462.771 84.2459 459.535 89.2936 455.393 92.6588C451.252 96.0239 446.506 97.7065 441.156 97.7065C435.72 97.7065 430.931 96.0239 426.79 92.6588C422.648 89.2936 419.412 84.2459 417.082 77.5156C414.753 70.7853 413.588 62.4587 413.588 52.5358C413.588 42.613 414.753 34.2864 417.082 27.5561C419.412 20.8258 422.648 15.778 426.79 12.4129C430.931 9.04773 435.72 7.36515 441.156 7.36515ZM441.156 10.8597C436.497 10.8597 432.355 12.4129 428.731 15.5192C425.107 18.6255 422.26 23.3281 420.189 29.6269C418.118 35.8395 417.082 43.4758 417.082 52.5358C417.082 61.5959 418.118 69.2753 420.189 75.5742C422.26 81.7868 425.107 86.4462 428.731 89.5525C432.355 92.6588 436.497 94.2119 441.156 94.2119C445.729 94.2119 449.785 92.6588 453.323 89.5525C456.86 86.4462 459.665 81.7868 461.735 75.5742C463.806 69.2753 464.842 61.5959 464.842 52.5358C464.842 43.4758 463.806 35.8395 461.735 29.6269C459.665 23.3281 456.86 18.6255 453.323 15.5192C449.785 12.4129 445.729 10.8597 441.156 10.8597Z" stroke="white" stroke-width="7.62144" mask="url(#path-1-outside-1_724_15833)"/>
<path d="M518.282 69.6205V8.78887H596.846V12.2834H521.647V37.3927H596.069V40.8872H521.647V66.1259H598.658V69.6205H518.282ZM603.964 97.3182H510.775V93.9531H603.964V97.3182Z" stroke="white" stroke-width="7.62144" mask="url(#path-1-outside-1_724_15833)"/>
</svg>
