<svg width="283" height="69" viewBox="0 0 283 69" fill="none" xmlns="http://www.w3.org/2000/svg">
<path d="M282.338 68.0001H254.285V30.6667H281.645V38.4534H263.565V45.2801H279.565V52.8534H263.565V60.1601H282.338V68.0001Z" fill="white"/>
<path d="M220.211 38.6134V30.6667H251.624V38.6134H240.584V68.0001H231.304V38.6134H220.211Z" fill="white"/>
<path d="M196.112 60.4801L193.232 68.0001H183.685L199.472 30.6667H208.645L224.379 68.0001H214.672L211.792 60.4801H196.112ZM203.952 40.2134L199.045 53.0667H208.859L203.952 40.2134Z" fill="white"/>
<path d="M173.331 47.4667L163.731 64.2667H159.571L150.077 48.0001V68.0001H141.384V30.6667H149.064L161.811 52.7467L174.344 30.6667H182.024L182.077 68.0001H173.384L173.331 47.4667Z" fill="white"/>
<path d="M126.479 68.0001H98.4255V30.6667H125.786V38.4534H107.706V45.2801H123.706V52.8534H107.706V60.1601H126.479V68.0001Z" fill="white"/>
<path d="M79.8737 68.6934C76.2114 68.6934 72.9048 67.8756 69.9537 66.2401C67.0025 64.569 64.6914 62.2579 63.0203 59.3067C61.3492 56.3556 60.5137 53.0312 60.5137 49.3334C60.5137 45.6356 61.3492 42.3112 63.0203 39.3601C64.727 36.409 67.0559 34.1156 70.007 32.4801C72.9581 30.809 76.2648 29.9734 79.927 29.9734C83.0914 29.9734 85.9537 30.5778 88.5137 31.7867C91.1092 32.9601 93.2426 34.649 94.9137 36.8534L88.9403 42.6134C86.6292 39.6978 83.7848 38.2401 80.407 38.2401C78.3803 38.2401 76.567 38.7023 74.967 39.6267C73.4025 40.5512 72.1759 41.8667 71.287 43.5734C70.3981 45.2445 69.9537 47.1645 69.9537 49.3334C69.9537 51.5023 70.3981 53.4223 71.287 55.0934C72.1759 56.7645 73.4025 58.0623 74.967 58.9867C76.567 59.9112 78.3803 60.3734 80.407 60.3734C83.8203 60.3734 86.6648 58.9156 88.9403 56.0001L94.9137 61.7601C93.2426 64.0001 91.1092 65.7245 88.5137 66.9334C85.9537 68.1067 83.0737 68.6934 79.8737 68.6934Z" fill="white"/>
<path d="M56.4453 30.6667V68.0001H47.1653V30.6667H56.4453Z" fill="white"/>
<path d="M32.3307 47.4667L22.7307 64.2667H18.5708L9.07742 48.0001V68.0001H0.384083V30.6667H8.06408L20.8107 52.7467L33.3441 30.6667H41.0241L41.0774 68.0001H32.3841L32.3307 47.4667Z" fill="white"/>
<path fill-rule="evenodd" clip-rule="evenodd" d="M282.338 68.0001V60.1601H263.565V52.8534H279.565V45.2801H263.565V38.4534H281.645V30.6667H254.285V68.0001H282.338ZM263.765 38.6534H281.845V30.4667H254.085V68.2001H282.538V59.9601H263.765V53.0534H279.765V45.0801H263.765V38.6534Z" fill="white"/>
<path fill-rule="evenodd" clip-rule="evenodd" d="M220.211 38.6134H231.304V68.0001H240.584V38.6134H251.624V30.6667H220.211V38.6134ZM240.784 38.8134H251.824V30.4667H220.011V38.8134H231.104V68.2001H240.784V38.8134Z" fill="white"/>
<path fill-rule="evenodd" clip-rule="evenodd" d="M193.232 68.0001L196.112 60.4801H211.792L214.672 68.0001H224.379L208.645 30.6667H199.472L183.685 68.0001H193.232ZM211.654 60.6801L214.534 68.2001H224.68L208.778 30.4667H199.339L183.384 68.2001H193.37L196.25 60.6801H211.654ZM203.952 40.2134L208.859 53.0667H199.045L203.952 40.2134ZM203.952 40.7742L199.336 52.8667H208.568L203.952 40.7742Z" fill="white"/>
<path fill-rule="evenodd" clip-rule="evenodd" d="M173.331 47.4667L173.384 68.0001H182.077L182.024 30.6667H174.344L161.811 52.7467L149.064 30.6667H141.384V68.0001H150.077V48.0001L159.571 64.2667H163.731L173.331 47.4667ZM173.133 48.2165L173.185 68.2001H182.278L182.224 30.4667H174.228L161.809 52.3442L149.18 30.4667H141.184V68.2001H150.277V48.7396L159.456 64.4667H163.847L173.133 48.2165Z" fill="white"/>
<path fill-rule="evenodd" clip-rule="evenodd" d="M126.479 68.0001V60.1601H107.706V52.8534H123.706V45.2801H107.706V38.4534H125.786V30.6667H98.4255V68.0001H126.479ZM107.906 38.6534H125.986V30.4667H98.2255V68.2001H126.679V59.9601H107.906V53.0534H123.906V45.0801H107.906V38.6534Z" fill="white"/>
<path fill-rule="evenodd" clip-rule="evenodd" d="M69.8567 66.415L69.8551 66.4141C66.8725 64.7251 64.5353 62.3879 62.8463 59.4053C61.1567 56.4214 60.3137 53.0625 60.3137 49.3334C60.3137 45.6043 61.1567 42.2454 62.8463 39.2615L62.8472 39.2599C64.5717 36.278 66.9266 33.9587 69.9095 32.3054C72.8928 30.6164 76.2335 29.7734 79.927 29.7734C83.1168 29.7734 86.0082 30.3827 88.5975 31.6051C91.2218 32.7918 93.3815 34.5012 95.073 36.7326L95.1803 36.8741L88.9205 42.9104L88.7836 42.7376C86.506 39.8644 83.717 38.4401 80.407 38.4401C78.4124 38.4401 76.6345 38.8945 75.068 39.7993C73.538 40.7036 72.3369 41.9905 71.4644 43.6658L71.4636 43.6673C70.5922 45.3055 70.1537 47.1925 70.1537 49.3334C70.1537 51.4744 70.5922 53.3613 71.4636 54.9995C72.3358 56.6393 73.5369 57.9092 75.068 58.8141C76.6345 59.719 78.4124 60.1734 80.407 60.1734C83.753 60.1734 86.5414 58.7487 88.7827 55.877L88.9193 55.702L95.1793 61.7384L95.074 61.8797C93.3826 64.1469 91.2229 65.8922 88.5981 67.1147L88.597 67.1152C86.0075 68.3021 83.0985 68.8934 79.8737 68.8934C76.1805 68.8934 72.84 68.0684 69.8567 66.415ZM74.967 58.9867C73.4025 58.0623 72.1759 56.7645 71.287 55.0934C70.3981 53.4223 69.9537 51.5023 69.9537 49.3334C69.9537 47.1645 70.3981 45.2445 71.287 43.5734C72.1759 41.8667 73.4025 40.5512 74.967 39.6267C76.567 38.7023 78.3803 38.2401 80.407 38.2401C83.7238 38.2401 86.5263 39.6457 88.8146 42.4568C88.8567 42.5085 88.8986 42.5607 88.9403 42.6134L94.9137 36.8534C93.2426 34.649 91.1092 32.9601 88.5137 31.7867C85.9537 30.5778 83.0914 29.9734 79.927 29.9734C76.2648 29.9734 72.9581 30.809 70.007 32.4801C67.0559 34.1156 64.727 36.409 63.0203 39.3601C61.3492 42.3112 60.5137 45.6356 60.5137 49.3334C60.5137 53.0312 61.3492 56.3556 63.0203 59.3067C64.6914 62.2579 67.0025 64.569 69.9537 66.2401C72.9048 67.8756 76.2114 68.6934 79.8737 68.6934C83.0737 68.6934 85.9537 68.1067 88.5137 66.9334C91.1092 65.7245 93.2426 64.0001 94.9137 61.7601L88.9403 56.0001C88.899 56.0531 88.8574 56.1056 88.8156 56.1577C86.5611 58.9682 83.7583 60.3734 80.407 60.3734C78.3803 60.3734 76.567 59.9112 74.967 58.9867Z" fill="white"/>
<path fill-rule="evenodd" clip-rule="evenodd" d="M56.4453 30.6667H47.1653V68.0001H56.4453V30.6667ZM56.6453 30.4667V68.2001H46.9653V30.4667H56.6453Z" fill="white"/>
<path fill-rule="evenodd" clip-rule="evenodd" d="M32.3307 47.4667L32.3841 68.0001H41.0774L41.0241 30.6667H33.3441L20.8107 52.7467L8.06408 30.6667H0.384083V68.0001H9.07742V48.0001L18.5708 64.2667H22.7307L32.3307 47.4667ZM32.1327 48.2164L32.1846 68.2001H41.2777L41.2238 30.4667H33.2276L20.8093 52.3442L8.17956 30.4667H0.184082V68.2001H9.27741V48.7396L18.4559 64.4667H22.8468L32.1327 48.2164Z" fill="white"/>
<path d="M179.241 14.9467V2.4134H195.428V3.1334H179.935V8.30674H195.268V9.02674H179.935V14.2267H195.801V14.9467H179.241ZM196.895 20.6534H177.695V19.9601H196.895V20.6534Z" fill="white"/>
<path d="M173.431 21.9067V1.42674H174.178V21.9067H173.431ZM163.351 2.12007C164.453 2.12007 165.431 2.46674 166.284 3.16007C167.138 3.8534 167.804 4.8934 168.284 6.28007C168.764 7.66674 169.004 9.38229 169.004 11.4267C169.004 13.4712 168.764 15.1867 168.284 16.5734C167.804 17.9601 167.138 19.0001 166.284 19.6934C165.431 20.3867 164.453 20.7334 163.351 20.7334C162.231 20.7334 161.244 20.3867 160.391 19.6934C159.538 19.0001 158.871 17.9601 158.391 16.5734C157.911 15.1867 157.671 13.4712 157.671 11.4267C157.671 9.38229 157.911 7.66674 158.391 6.28007C158.871 4.8934 159.538 3.8534 160.391 3.16007C161.244 2.46674 162.231 2.12007 163.351 2.12007ZM163.351 2.84007C162.391 2.84007 161.538 3.16007 160.791 3.80007C160.044 4.44007 159.458 5.40896 159.031 6.70674C158.604 7.98674 158.391 9.56007 158.391 11.4267C158.391 13.2934 158.604 14.8756 159.031 16.1734C159.458 17.4534 160.044 18.4134 160.791 19.0534C161.538 19.6934 162.391 20.0134 163.351 20.0134C164.293 20.0134 165.129 19.6934 165.858 19.0534C166.586 18.4134 167.164 17.4534 167.591 16.1734C168.018 14.8756 168.231 13.2934 168.231 11.4267C168.231 9.56007 168.018 7.98674 167.591 6.70674C167.164 5.40896 166.586 4.44007 165.858 3.80007C165.129 3.16007 164.293 2.84007 163.351 2.84007Z" fill="white"/>
<path d="M153.567 21.9067H152.82V1.42674H153.567V21.9067ZM149.034 1.56007V21.5601H148.287V11.0801H144.18V20.4134H136.314V2.4134H144.18V10.3867H148.287V1.56007H149.034ZM137.034 3.1334V19.7201H143.434V3.1334H137.034Z" fill="white"/>
<path d="M123.543 7.2934C122.441 9.35563 121.108 11.009 119.543 12.2534C117.979 13.4978 116.37 14.1201 114.716 14.1201V13.4001C116.192 13.4001 117.614 12.8578 118.983 11.7734C120.37 10.6712 121.561 9.22229 122.556 7.42674C123.57 5.63118 124.299 3.71118 124.743 1.66674L125.516 1.90674C125.108 3.63118 124.548 5.22229 123.836 6.68007L132.69 13.6401L132.236 14.1467L123.543 7.2934ZM133.543 19.9601V20.6534H114.343V19.9601H133.543Z" fill="white"/>
<path d="M110.079 21.9067V1.42674H110.826V21.9067H110.079ZM99.9993 2.12007C101.102 2.12007 102.079 2.46674 102.933 3.16007C103.786 3.8534 104.453 4.8934 104.933 6.28007C105.413 7.66674 105.653 9.38229 105.653 11.4267C105.653 13.4712 105.413 15.1867 104.933 16.5734C104.453 17.9601 103.786 19.0001 102.933 19.6934C102.079 20.3867 101.102 20.7334 99.9993 20.7334C98.8793 20.7334 97.8926 20.3867 97.0393 19.6934C96.186 19.0001 95.5193 17.9601 95.0393 16.5734C94.5593 15.1867 94.3193 13.4712 94.3193 11.4267C94.3193 9.38229 94.5593 7.66674 95.0393 6.28007C95.5193 4.8934 96.186 3.8534 97.0393 3.16007C97.8926 2.46674 98.8793 2.12007 99.9993 2.12007ZM99.9993 2.84007C99.0393 2.84007 98.186 3.16007 97.4393 3.80007C96.6926 4.44007 96.106 5.40896 95.6793 6.70674C95.2526 7.98674 95.0393 9.56007 95.0393 11.4267C95.0393 13.2934 95.2526 14.8756 95.6793 16.1734C96.106 17.4534 96.6926 18.4134 97.4393 19.0534C98.186 19.6934 99.0393 20.0134 99.9993 20.0134C100.942 20.0134 101.777 19.6934 102.506 19.0534C103.235 18.4134 103.813 17.4534 104.239 16.1734C104.666 14.8756 104.879 13.2934 104.879 11.4267C104.879 9.56007 104.666 7.98674 104.239 6.70674C103.813 5.40896 103.235 4.44007 102.506 3.80007C101.777 3.16007 100.942 2.84007 99.9993 2.84007Z" fill="white"/>
<path d="M89.1221 11.1867V21.9067H88.4021V1.42674H89.1221V10.5201H92.2954V11.1867H89.1221ZM83.6021 2.4134V20.4134H73.2821V2.4134H83.6021ZM82.9354 19.7201V3.1334H74.0021V19.7201H82.9354Z" fill="white"/>
<path fill-rule="evenodd" clip-rule="evenodd" d="M179.241 14.9467H195.801V14.2267H179.935V9.02674H195.268V8.30674H179.935V3.1334H195.428V2.4134H179.241V14.9467ZM180.72 3.91854H196.213V1.62827H178.456V15.7319H196.587V13.4416H180.72V9.81187H196.053V7.5216H180.72V3.91854ZM196.895 20.6534V19.9601H177.695V20.6534H196.895ZM197.68 21.4385H176.91V19.1749H197.68V21.4385Z" fill="white"/>
<path fill-rule="evenodd" clip-rule="evenodd" d="M172.646 22.6919V0.641602H174.963V22.6919H172.646ZM159.777 6.95195L159.776 6.95502C159.384 8.13081 159.176 9.61455 159.176 11.4267C159.176 13.2375 159.383 14.7311 159.776 15.9264C160.174 17.1189 160.696 17.9384 161.302 18.4573C161.91 18.9786 162.583 19.2283 163.351 19.2283C164.096 19.2283 164.749 18.9817 165.339 18.4634C165.93 17.9447 166.446 17.1236 166.845 15.928C167.238 14.7324 167.446 13.2383 167.446 11.4267C167.446 9.61455 167.238 8.13081 166.846 6.95502L166.845 6.95195C166.445 5.73571 165.929 4.90726 165.339 4.39005C164.749 3.87177 164.096 3.62521 163.351 3.62521C162.583 3.62521 161.91 3.8749 161.302 4.39619C160.698 4.91335 160.175 5.73967 159.777 6.95195ZM167.564 16.2527C167.398 16.7382 167.21 17.1767 167 17.5682C166.673 18.1769 166.292 18.672 165.858 19.0534C165.839 19.0694 165.821 19.0852 165.803 19.1008C165.087 19.7092 164.27 20.0134 163.351 20.0134C162.421 20.0134 161.592 19.7134 160.862 19.1133C160.838 19.0937 160.815 19.0737 160.791 19.0534C160.076 18.4403 159.507 17.5335 159.085 16.333C159.067 16.2803 159.049 16.2272 159.031 16.1734C158.604 14.8756 158.391 13.2934 158.391 11.4267C158.391 9.56007 158.604 7.98674 159.031 6.70674C159.051 6.64479 159.072 6.58359 159.093 6.52314C159.514 5.31721 160.08 4.40952 160.791 3.80007C160.815 3.77978 160.838 3.75981 160.862 3.74017C161.592 3.1401 162.421 2.84007 163.351 2.84007C164.27 2.84007 165.087 3.14428 165.803 3.7527C165.821 3.76829 165.839 3.78408 165.858 3.80007C166.173 4.0772 166.46 4.416 166.719 4.81646C167.058 5.34083 167.349 5.97092 167.591 6.70674C167.698 7.02792 167.792 7.36757 167.872 7.72569C168.111 8.79478 168.231 10.0285 168.231 11.4267C168.231 13.2934 168.018 14.8756 167.591 16.1734C167.582 16.2 167.573 16.2264 167.564 16.2527ZM167.377 4.38789C167.731 4.92368 168.033 5.55441 168.284 6.28007C168.422 6.67843 168.54 7.10394 168.638 7.55658C168.882 8.67957 169.004 9.96962 169.004 11.4267C169.004 13.3957 168.782 15.0596 168.336 16.4185C168.336 16.4195 168.336 16.4205 168.335 16.4216C168.326 16.4499 168.317 16.4781 168.307 16.5061C168.3 16.5286 168.292 16.5511 168.284 16.5734C168.111 17.0729 167.914 17.5274 167.693 17.9369C167.319 18.6293 166.875 19.1932 166.362 19.6284C166.336 19.6504 166.31 19.6721 166.284 19.6934C165.431 20.3867 164.453 20.7334 163.351 20.7334C162.231 20.7334 161.244 20.3867 160.391 19.6934C160.362 19.6697 160.333 19.6457 160.304 19.6212C159.492 18.9287 158.854 17.9128 158.391 16.5734C158.372 16.518 158.353 16.462 158.334 16.4055C158.334 16.4046 158.334 16.4036 158.333 16.4027C157.892 15.0467 157.671 13.3881 157.671 11.4267C157.671 9.477 157.889 7.82639 158.326 6.4749C158.326 6.47393 158.326 6.47296 158.327 6.472C158.348 6.40734 158.369 6.34336 158.391 6.28007C158.854 4.94072 159.492 3.92478 160.304 3.23225C160.333 3.20779 160.362 3.18373 160.391 3.16007C161.244 2.46674 162.231 2.12007 163.351 2.12007C164.453 2.12007 165.431 2.46674 166.284 3.16007C166.31 3.1814 166.336 3.20306 166.362 3.22505C166.738 3.54373 167.076 3.93134 167.377 4.38789ZM173.431 1.42674V21.9067H174.178V1.42674H173.431ZM163.351 1.33493C164.633 1.33493 165.786 1.74336 166.779 2.55072C167.778 3.36228 168.514 4.54336 169.026 6.02324C169.544 7.51795 169.789 9.32661 169.789 11.4267C169.789 13.5269 169.544 15.3355 169.026 16.8302C168.514 18.3101 167.778 19.4912 166.779 20.3028C165.786 21.1101 164.633 21.5185 163.351 21.5185C162.054 21.5185 160.892 21.1121 159.896 20.3028C158.897 19.4912 158.161 18.3101 157.649 16.8302C157.132 15.3355 156.886 13.5269 156.886 11.4267C156.886 9.32661 157.132 7.51795 157.649 6.02324C158.161 4.54336 158.897 3.36228 159.896 2.55072C160.892 1.74139 162.054 1.33493 163.351 1.33493Z" fill="white"/>
<path fill-rule="evenodd" clip-rule="evenodd" d="M154.352 22.6919H152.035V0.641602H154.352V22.6919ZM149.819 0.774935V22.3452H147.502V11.8652H144.965V21.1985H135.529V1.62827H144.965V9.6016H147.502V0.774935H149.819ZM148.287 21.5601H149.034V1.56007H148.287V10.3867H144.18V2.4134H136.314V20.4134H144.18V11.0801H148.287V21.5601ZM143.434 3.1334H137.034V19.7201H143.434V3.1334ZM142.649 3.91854V18.9349H137.819V3.91854H142.649ZM153.567 21.9067V1.42674H152.82V21.9067H153.567Z" fill="white"/>
<path fill-rule="evenodd" clip-rule="evenodd" d="M124.812 6.44858C125.423 5.09513 125.912 3.64094 126.28 2.08788L126.45 1.37426L124.158 0.663024L123.976 1.49995C123.548 3.46875 122.847 5.31476 121.873 7.04084L121.87 7.04602C120.917 8.76509 119.789 10.1294 118.496 11.158C117.239 12.1535 115.984 12.6149 114.716 12.6149H113.931V14.9052H114.716C116.582 14.9052 118.359 14.1989 120.032 12.8679C121.477 11.718 122.724 10.2498 123.777 8.47743L132.33 15.22L133.833 13.54L124.812 6.44858ZM123.155 7.98695C123.267 7.79587 123.377 7.60094 123.485 7.40215C123.504 7.36603 123.524 7.32978 123.543 7.2934L132.236 14.1467L132.69 13.6401L123.836 6.68007C123.855 6.64271 123.873 6.60527 123.891 6.56774C124.576 5.14066 125.118 3.58699 125.516 1.90674L124.743 1.66674C124.687 1.92398 124.627 2.17925 124.562 2.43255C124.111 4.19238 123.442 5.85711 122.556 7.42674C122.404 7.70118 122.248 7.96751 122.086 8.22575C121.22 9.61279 120.222 10.7662 119.092 11.686C119.056 11.7154 119.019 11.7445 118.983 11.7734C117.614 12.8578 116.192 13.4001 114.716 13.4001V14.1201C114.979 14.1201 115.241 14.1043 115.502 14.0729C116.842 13.9112 118.152 13.3337 119.432 12.3404C119.433 12.3402 119.433 12.34 119.433 12.3397C119.47 12.3113 119.507 12.2825 119.543 12.2534C120.75 11.2934 121.819 10.0901 122.751 8.64347C122.889 8.42993 123.023 8.21109 123.155 7.98695ZM134.328 19.1749V21.4385H113.558V19.1749H134.328ZM133.543 19.9601H114.343V20.6534H133.543V19.9601Z" fill="white"/>
<path fill-rule="evenodd" clip-rule="evenodd" d="M109.294 22.6919V0.641602H111.611V22.6919H109.294ZM96.4252 6.95195L96.4241 6.95502C96.0322 8.13081 95.8244 9.61455 95.8244 11.4267C95.8244 13.2379 96.032 14.7317 96.4248 15.9272C96.8225 17.1193 97.345 17.9385 97.9502 18.4573C98.5584 18.9786 99.2317 19.2283 99.9993 19.2283C100.745 19.2283 101.398 18.9817 101.988 18.4634C102.579 17.9444 103.095 17.1229 103.494 15.9264C103.887 14.7311 104.094 13.2375 104.094 11.4267C104.094 9.61455 103.886 8.13081 103.494 6.95502L103.493 6.95195C103.094 5.73571 102.577 4.90726 101.988 4.39005C101.398 3.87177 100.745 3.62521 99.9993 3.62521C99.2317 3.62521 98.5584 3.8749 97.9502 4.39619C97.3469 4.91335 96.8237 5.73967 96.4252 6.95195ZM104.212 16.2536C104.046 16.7391 103.858 17.1776 103.648 17.5691C103.321 18.1774 102.94 18.6722 102.506 19.0534C102.488 19.0694 102.469 19.0852 102.451 19.1008C101.735 19.7092 100.918 20.0134 99.9993 20.0134C99.0697 20.0134 98.2402 19.7134 97.5106 19.1133C97.4867 19.0937 97.463 19.0737 97.4393 19.0534C96.724 18.4403 96.1555 17.5335 95.7339 16.333C95.7154 16.2803 95.6972 16.2272 95.6793 16.1734C95.2526 14.8756 95.0393 13.2934 95.0393 11.4267C95.0393 9.56007 95.2526 7.98674 95.6793 6.70674C95.6997 6.64479 95.7204 6.58359 95.7415 6.52314C96.1623 5.31721 96.7283 4.40952 97.4393 3.80007C97.463 3.77978 97.4867 3.75982 97.5106 3.74017C98.2402 3.1401 99.0697 2.84007 99.9993 2.84007C100.918 2.84007 101.735 3.14428 102.451 3.75269C102.469 3.76828 102.488 3.78408 102.506 3.80007C102.822 4.07727 103.109 4.41618 103.368 4.81678C103.707 5.34108 103.997 5.97107 104.239 6.70674C104.346 7.02786 104.44 7.36745 104.52 7.7255C104.76 8.79463 104.879 10.0284 104.879 11.4267C104.879 13.2934 104.666 14.8756 104.239 16.1734C104.23 16.2003 104.221 16.227 104.212 16.2536ZM104.027 4.38952C104.38 4.92496 104.682 5.55514 104.933 6.28007C105.071 6.67849 105.189 7.10407 105.287 7.55679C105.531 8.67973 105.653 9.96971 105.653 11.4267C105.653 13.3957 105.43 15.0596 104.985 16.4185C104.984 16.4195 104.984 16.4205 104.984 16.4216C104.975 16.4496 104.965 16.4774 104.956 16.5052C104.948 16.528 104.94 16.5507 104.933 16.5734C104.76 17.0731 104.562 17.5278 104.341 17.9374C103.967 18.6296 103.523 19.1933 103.011 19.6284C102.985 19.6504 102.959 19.6721 102.933 19.6934C102.079 20.3867 101.102 20.7334 99.9993 20.7334C98.8793 20.7334 97.8926 20.3867 97.0393 19.6934C97.0102 19.6697 96.9813 19.6457 96.9526 19.6212C96.1407 18.9287 95.5029 17.9128 95.0393 16.5734C95.0201 16.518 95.0013 16.462 94.9829 16.4055C94.9826 16.4046 94.9823 16.4036 94.9819 16.4027C94.5402 15.0467 94.3193 13.3881 94.3193 11.4267C94.3193 9.477 94.5376 7.82639 94.9741 6.4749C94.9744 6.47393 94.9748 6.47297 94.9751 6.472C94.996 6.40734 95.0174 6.34336 95.0393 6.28007C95.5029 4.94072 96.1407 3.92478 96.9526 3.23225C96.9813 3.20779 97.0102 3.18373 97.0393 3.16007C97.8926 2.46674 98.8793 2.12007 99.9993 2.12007C101.102 2.12007 102.079 2.46674 102.933 3.16007C102.959 3.1814 102.985 3.20306 103.011 3.22505C103.387 3.54411 103.725 3.93227 104.027 4.38952ZM110.079 1.42674V21.9067H110.826V1.42674H110.079ZM99.9993 1.33493C101.281 1.33493 102.434 1.74336 103.428 2.55072C104.427 3.36228 105.162 4.54336 105.675 6.02324C106.192 7.51795 106.438 9.32661 106.438 11.4267C106.438 13.5269 106.192 15.3355 105.675 16.8302C105.162 18.3101 104.427 19.4912 103.428 20.3028C102.434 21.1101 101.281 21.5185 99.9993 21.5185C98.7026 21.5185 97.5403 21.1121 96.5442 20.3028C95.5453 19.4912 94.8096 18.3101 94.2973 16.8302C93.78 15.3355 93.5342 13.5269 93.5342 11.4267C93.5342 9.32661 93.78 7.51795 94.2973 6.02324C94.8096 4.54336 95.5453 3.36228 96.5442 2.55072C97.5403 1.74139 98.7026 1.33493 99.9993 1.33493Z" fill="white"/>
<path fill-rule="evenodd" clip-rule="evenodd" d="M88.4021 21.9067H89.1221V11.1867H92.2954V10.5201H89.1221V1.42674H88.4021V21.9067ZM89.9072 9.73494V0.641602H87.617V22.6919H89.9072V11.9719H93.0806V9.73494H89.9072ZM84.3872 1.62827V21.1985H72.497V1.62827H84.3872ZM82.1503 3.91854H74.7872V18.9349H82.1503V3.91854ZM74.0021 3.1334H82.9354V19.7201H74.0021V3.1334ZM83.6021 2.4134H73.2821V20.4134H83.6021V2.4134Z" fill="white"/>
</svg>
