<svg width="1374" height="327" viewBox="0 0 1374 327" fill="none" xmlns="http://www.w3.org/2000/svg">
<path d="M160.404 223.459L113.81 304.999H93.6191L47.5424 226.048V323.119H5.34855V141.919H42.6241L104.491 249.086L165.323 141.919H202.598L202.857 323.119H160.663L160.404 223.459Z" fill="#09338C"/>
<path d="M277.447 141.919V323.119H232.405V141.919H277.447Z" fill="#09338C"/>
<path d="M391.158 326.484C373.383 326.484 357.334 322.515 343.01 314.577C328.687 306.466 317.47 295.249 309.359 280.925C301.248 266.602 297.193 250.466 297.193 232.519C297.193 214.572 301.248 198.436 309.359 184.113C317.642 169.789 328.946 158.658 343.269 150.72C357.593 142.609 373.642 138.554 391.417 138.554C406.776 138.554 420.668 141.487 433.093 147.355C445.691 153.05 456.045 161.247 464.156 171.946L435.164 199.903C423.947 185.752 410.141 178.677 393.746 178.677C383.91 178.677 375.109 180.92 367.343 185.407C359.75 189.894 353.796 196.279 349.482 204.562C345.168 212.673 343.01 221.992 343.01 232.519C343.01 243.046 345.168 252.365 349.482 260.476C353.796 268.587 359.75 274.885 367.343 279.372C375.109 283.859 383.91 286.103 393.746 286.103C410.313 286.103 424.119 279.027 435.164 264.876L464.156 292.833C456.045 303.705 445.691 312.075 433.093 317.942C420.668 323.637 406.689 326.484 391.158 326.484Z" fill="#09338C"/>
<path d="M617.36 323.119H481.201V141.919H613.995V179.712H526.242V212.846H603.9V249.604H526.242V285.067H617.36V323.119Z" fill="#09338C"/>
<path d="M844.76 223.459L798.165 304.999H777.974L731.898 226.048V323.119H689.704V141.919H726.979L788.846 249.086L849.678 141.919H886.953L887.212 323.119H845.019L844.76 223.459Z" fill="#09338C"/>
<path d="M955.33 286.62L941.352 323.119H895.017L971.638 141.919H1016.16L1092.53 323.119H1045.41L1031.43 286.62H955.33ZM993.382 188.254L969.568 250.639H1017.2L993.382 188.254Z" fill="#09338C"/>
<path d="M1072.29 180.489V141.919H1224.76V180.489H1171.18V323.119H1126.14V180.489H1072.29Z" fill="#09338C"/>
<path d="M1373.84 323.119H1237.68V141.919H1370.47V179.712H1282.72V212.846H1360.38V249.604H1282.72V285.067H1373.84V323.119Z" fill="#09338C"/>
<path d="M76.8808 47.371V99.4014H73.3862V0H76.8808V44.1353H92.2828V47.371H76.8808ZM50.089 4.78887V92.1534H0V4.78887H50.089ZM46.8533 88.7882V8.28345H3.49458V88.7882H46.8533Z" fill="#09338C"/>
<path d="M178.598 99.4014V0H182.222V99.4014H178.598ZM129.674 3.36515C135.024 3.36515 139.77 5.04773 143.911 8.41288C148.053 11.778 151.289 16.8258 153.618 23.5561C155.948 30.2864 157.113 38.613 157.113 48.5358C157.113 58.4587 155.948 66.7853 153.618 73.5156C151.289 80.2459 148.053 85.2936 143.911 88.6588C139.77 92.0239 135.024 93.7065 129.674 93.7065C124.238 93.7065 119.449 92.0239 115.307 88.6588C111.166 85.2936 107.93 80.2459 105.6 73.5156C103.271 66.7853 102.106 58.4587 102.106 48.5358C102.106 38.613 103.271 30.2864 105.6 23.5561C107.93 16.8258 111.166 11.778 115.307 8.41288C119.449 5.04773 124.238 3.36515 129.674 3.36515ZM129.674 6.85973C125.015 6.85973 120.873 8.41288 117.249 11.5192C113.625 14.6255 110.777 19.3281 108.707 25.6269C106.636 31.8395 105.6 39.4758 105.6 48.5358C105.6 57.5959 106.636 65.2753 108.707 71.5742C110.777 77.7868 113.625 82.4462 117.249 85.5525C120.873 88.6588 125.015 90.2119 129.674 90.2119C134.247 90.2119 138.303 88.6588 141.84 85.5525C145.378 82.4462 148.182 77.7868 150.253 71.5742C152.324 65.2753 153.36 57.5959 153.36 48.5358C153.36 39.4758 152.324 31.8395 150.253 25.6269C148.182 19.3281 145.378 14.6255 141.84 11.5192C138.303 8.41288 134.247 6.85973 129.674 6.85973Z" fill="#09338C"/>
<path d="M243.946 28.4744C238.596 38.4835 232.125 46.5081 224.532 52.5481C216.939 58.5882 209.13 61.6082 201.105 61.6082V58.1136C208.267 58.1136 215.17 55.4819 221.814 50.2184C228.544 44.8687 234.325 37.8364 239.157 29.1215C244.076 20.4066 247.613 11.0877 249.77 1.16486L253.524 2.32972C251.539 10.6995 248.821 18.422 245.37 25.4975L288.34 59.2784L286.14 61.7376L243.946 28.4744ZM292.482 89.9531V93.3182H199.293V89.9531H292.482Z" fill="#09338C"/>
<path d="M389.669 99.4014H386.045V0H389.669V99.4014ZM367.667 0.647146V97.7188H364.043V46.8533H344.111V92.1534H305.929V4.78887H344.111V43.4881H364.043V0.647146H367.667ZM309.424 8.28345V88.7882H340.487V8.28345H309.424Z" fill="#09338C"/>
<path d="M486.08 99.4014V0H489.704V99.4014H486.08ZM437.156 3.36515C442.506 3.36515 447.252 5.04773 451.393 8.41288C455.535 11.778 458.771 16.8258 461.101 23.5561C463.43 30.2864 464.595 38.613 464.595 48.5358C464.595 58.4587 463.43 66.7853 461.101 73.5156C458.771 80.2459 455.535 85.2936 451.393 88.6588C447.252 92.0239 442.506 93.7065 437.156 93.7065C431.72 93.7065 426.931 92.0239 422.79 88.6588C418.648 85.2936 415.412 80.2459 413.082 73.5156C410.753 66.7853 409.588 58.4587 409.588 48.5358C409.588 38.613 410.753 30.2864 413.082 23.5561C415.412 16.8258 418.648 11.778 422.79 8.41288C426.931 5.04773 431.72 3.36515 437.156 3.36515ZM437.156 6.85973C432.497 6.85973 428.355 8.41288 424.731 11.5192C421.107 14.6255 418.26 19.3281 416.189 25.6269C414.118 31.8395 413.082 39.4758 413.082 48.5358C413.082 57.5959 414.118 65.2753 416.189 71.5742C418.26 77.7868 421.107 82.4462 424.731 85.5525C428.355 88.6588 432.497 90.2119 437.156 90.2119C441.729 90.2119 445.785 88.6588 449.323 85.5525C452.86 82.4462 455.665 77.7868 457.735 71.5742C459.806 65.2753 460.842 57.5959 460.842 48.5358C460.842 39.4758 459.806 31.8395 457.735 25.6269C455.665 19.3281 452.86 14.6255 449.323 11.5192C445.785 8.41288 441.729 6.85973 437.156 6.85973Z" fill="#09338C"/>
<path d="M514.282 65.6205V4.78887H592.846V8.28345H517.647V33.3927H592.069V36.8872H517.647V62.1259H594.658V65.6205H514.282ZM599.964 93.3182H506.775V89.9531H599.964V93.3182Z" fill="#09338C"/>
</svg>
